<?xml version="1.0" encoding="utf-8"?>
<svg width="256px" height="256px" viewBox="0 0 256 256" version="1.1" xmlns:xlink="http://www.w3.org/1999/xlink" xmlns="http://www.w3.org/2000/svg">
  <defs>
    <filter filterUnits="userSpaceOnUse" color-interpolation-filters="sRGB" id="filter_1">
      <feFlood flood-opacity="0" result="BackgroundImageFix" />
      <feColorMatrix in="SourceAlpha" type="matrix" values="0 0 0 0 0 0 0 0 0 0 0 0 0 0 0 0 0 0 128 0" />
      <feOffset dx="0" dy="2" />
      <feGaussianBlur stdDeviation="2" />
      <feColorMatrix type="matrix" values="0 0 0 0 0.39215687 0 0 0 0 0.39215687 0 0 0 0 0.39215687 0 0 0 0.49803922 0" />
      <feBlend mode="normal" in2="BackgroundImageFix" result="effect0_dropShadow" />
      <feBlend mode="normal" in="SourceGraphic" in2="effect0_dropShadow" result="shape" />
    </filter>
    <path d="M182.805 0L182.805 0L182.805 141.083L0 141.083L0 0L182.805 0Z" id="path_1" />
    <clipPath id="clip_1">
      <use xlink:href="#path_1" />
    </clipPath>
  </defs>
  <g id="编组-2">
    <g id="编组" transform="translate(26.597443 24.097443)">
      <g id="shape_uLJDPTwmrY" transform="translate(0 32)">
        <g id="Group">
          <path d="M0 0L202.805 0L202.805 161.083L0 161.083L0 0Z" id="矩形" fill="#000000" fill-opacity="0" fill-rule="evenodd" stroke="none" />
          <g id="图层_1" clip-path="url(#clip_1)" transform="translate(10 10)">
            <path d="M182.805 0L182.805 0L182.805 141.083L0 141.083L0 0L182.805 0Z" id="图层_1" fill="none" stroke="none" />
            <g id="Group">
              <path d="M182.805 43.7311L100.751 0L62.1197 20.5521L62.1197 3.86317L48.5214 3.86317L48.5214 27.8148L18.6977 43.7311L18.6977 57.9475L32.9142 50.2212L32.9142 120.531L40.0224 120.531L40.0224 46.5126L100.751 14.2165L161.326 46.5126L161.326 52.6936L168.434 57.9475L168.434 50.2212L182.805 57.9475L182.805 43.7311Z" id="多边形" fill="#FFFFFF" fill-opacity="0" fill-rule="evenodd" stroke="none" />
              <path d="M159.008 31.0599L159.008 7.57181L94.2613 32.4506L94.2613 52.6936L100.906 49.7576L100.906 36.6228L152.054 16.8434L152.054 27.3512L159.008 31.0599Z" id="多边形" fill="#43FFA7" fill-rule="evenodd" stroke="none" />
              <path d="M93.6432 110.178L93.6432 123.467L83.7535 129.184L20.5521 89.1619L32.9142 85.1442L32.9142 75.5636L0 86.535L83.1354 141.083L100.597 131.193L100.597 112.341L93.6432 110.178Z" id="多边形" fill="#43FFA7" fill-rule="evenodd" stroke="none" />
              <path d="M140.928 115.122L144.792 122.231L0 122.231L0 115.122L140.928 115.122Z" id="多边形" fill="#FFFFFF" fill-opacity="0" fill-rule="evenodd" stroke="none" />
              <path d="M93.6432 114.195L100.597 114.195L100.597 123.776L93.6432 123.776L93.6432 114.195Z" id="矩形" fill="#43FFA7" fill-rule="evenodd" stroke="none" />
            </g>
          </g>
        </g>
      </g>
      <g id="shape_WYq98wCgvf" transform="matrix(-4.371139E-08 1 -1 -4.371139E-08 192 0)">
        <g id="Group">
          <path d="M202.805 0L202.805 161.083L0 161.083L1.9211e-05 0L202.805 0Z" id="矩形" fill="#000000" fill-opacity="0" fill-rule="evenodd" stroke="none" />
          <g id="68z5jLoLnO" clip-path="url(#clip_1)" transform="translate(10 10)">
            <path d="M182.805 0L182.805 0L182.805 141.083L0 141.083L0 0L182.805 0Z" id="68z5jLoLnO" fill="none" stroke="none" />
            <g id="Group">
              <path d="M182.805 43.7311L100.751 0L62.1197 20.5521L62.1197 3.86317L48.5214 3.86317L48.5214 27.8148L18.6977 43.7311L18.6977 57.9475L32.9142 50.2212L32.9142 120.531L40.0224 120.531L40.0224 46.5126L100.751 14.2165L161.326 46.5126L161.326 52.6936L168.434 57.9475L168.434 50.2212L182.805 57.9475L182.805 43.7311Z" id="多边形" fill="#FFFFFF" fill-opacity="0" fill-rule="evenodd" stroke="none" />
              <path d="M159.008 31.0599L159.008 7.57182L94.2613 32.4506L94.2613 52.6936L100.906 49.7576L100.906 36.6228L152.054 16.8434L152.054 27.3512L159.008 31.0599Z" id="多边形" fill="#2E2A2A" fill-rule="evenodd" stroke="none" />
              <path d="M93.6432 110.178L93.6432 123.467L83.7535 129.184L20.5521 89.1619L32.9142 85.1442L32.9142 75.5636L0 86.535L83.1354 141.083L100.597 131.193L100.597 112.341L93.6432 110.178Z" id="多边形" fill="#2E2A2A" fill-rule="evenodd" stroke="none" />
              <path d="M140.928 115.122L144.792 122.231L1.52588e-05 122.231L1.52588e-05 115.122L140.928 115.122Z" id="多边形" fill="#FFFFFF" fill-opacity="0" fill-rule="evenodd" stroke="none" />
              <path d="M93.6432 114.195L100.597 114.195L100.597 123.776L93.6432 123.776L93.6432 114.195Z" id="矩形" fill="#2E2A2A" fill-rule="evenodd" stroke="none" />
            </g>
          </g>
        </g>
      </g>
      <g id="shape_FxHON8kM4f" transform="matrix(-4.371139E-08 1 -1 -4.371139E-08 199 4.9999924)">
        <g id="Group">
          <path d="M202.805 0L202.805 161.083L0 161.083L1.9211e-05 0L202.805 0Z" id="矩形" fill="#000000" fill-opacity="0" fill-rule="evenodd" stroke="none" />
          <g id="kXtA8KWo1y" clip-path="url(#clip_1)" transform="translate(10 10)">
            <path d="M182.805 0L182.805 0L182.805 141.083L0 141.083L0 0L182.805 0Z" id="kXtA8KWo1y" fill="none" stroke="none" />
            <g id="Group">
              <path d="M182.805 43.7311L100.751 0L62.1197 20.5521L62.1197 3.86317L48.5214 3.86317L48.5214 27.8148L18.6977 43.7311L18.6977 57.9475L32.9142 50.2212L32.9142 120.531L40.0224 120.531L40.0224 46.5126L100.751 14.2165L161.326 46.5126L161.326 52.6936L168.434 57.9475L168.434 50.2212L182.805 57.9475L182.805 43.7311Z" id="多边形" fill="#FFFFFF" fill-opacity="0" fill-rule="evenodd" stroke="none" />
              <path d="M159.008 31.0599L159.008 7.57182L94.2613 32.4506L94.2613 52.6936L100.906 49.7576L100.906 36.6228L152.054 16.8434L152.054 27.3512L159.008 31.0599Z" id="多边形" fill="#0C9E4B" fill-rule="evenodd" stroke="none" />
              <path d="M93.6432 110.178L93.6432 123.467L83.7535 129.184L20.5521 89.1619L32.9142 85.1442L32.9142 75.5636L0 86.535L83.1354 141.083L100.597 131.193L100.597 112.341L93.6432 110.178Z" id="多边形" fill="#0C9E4B" fill-rule="evenodd" stroke="none" />
              <path d="M140.928 115.122L144.792 122.231L1.52588e-05 122.231L1.52588e-05 115.122L140.928 115.122Z" id="多边形" fill="#FFFFFF" fill-opacity="0" fill-rule="evenodd" stroke="none" />
              <path d="M93.6432 114.195L100.597 114.195L100.597 123.776L93.6432 123.776L93.6432 114.195Z" id="矩形" fill="#0C9E4B" fill-rule="evenodd" stroke="none" />
            </g>
          </g>
        </g>
      </g>
    </g>
    <g id="Longan" transform="translate(6.5 96)">
      <g id="Longan" fill="#00D270" filter="url(#filter_1)">
        <path d="M3.52 16.256L4.288 17.472C4.608 18.048 4.736 18.432 4.736 19.008L4.736 46.272C4.736 48.768 6.656 50.56 9.152 50.56L39.04 50.56C40.256 50.56 40.96 49.856 40.96 48.64L40.96 46.336C40.96 45.12 40.256 44.416 39.04 44.416L18.176 44.416C17.344 44.416 16.896 43.968 16.896 43.136L16.896 16.256C16.896 15.04 16.192 14.336 14.976 14.336L5.056 14.336C3.52 14.336 2.816 15.168 3.52 16.256ZM44.928 27.776L44.928 46.272C44.928 48.768 46.72 50.56 49.216 50.56L72.64 50.56C75.392 50.56 76.864 49.088 76.864 46.336L76.864 28.416C76.864 25.536 74.88 23.552 72.384 23.552L49.152 23.552C46.4 23.552 44.928 25.024 44.928 27.776ZM64.512 30.976L64.512 43.136C64.512 43.968 64.064 44.416 63.232 44.416L58.368 44.416C57.536 44.416 57.088 43.968 57.088 43.136L57.088 30.976C57.088 30.144 57.536 29.696 58.368 29.696L63.232 29.696C64.064 29.696 64.512 30.144 64.512 30.976ZM112.704 23.552L85.44 23.552C83.904 23.552 83.328 24.576 84.16 25.856L84.672 26.688C84.992 27.264 85.12 27.648 85.12 28.224L85.12 48.64C85.12 49.856 85.824 50.56 87.04 50.56L95.488 50.56C96.704 50.56 97.408 49.856 97.408 48.64L97.408 30.976C97.408 30.144 97.856 29.696 98.688 29.696L103.488 29.696C104.32 29.696 104.768 30.144 104.768 30.976L104.768 48.64C104.768 49.856 105.472 50.56 106.688 50.56L115.008 50.56C116.224 50.56 116.928 49.856 116.928 48.64L116.928 27.776C116.928 25.024 115.392 23.552 112.704 23.552ZM129.92 57.216L129.088 56.384C127.872 55.168 126.72 55.616 126.72 57.344L126.72 62.08C126.72 63.296 127.424 64 128.64 64L154.368 64C156.864 64 158.656 62.208 158.656 59.712L158.656 27.776C158.656 25.024 157.184 23.552 154.432 23.552L130.944 23.552C128.192 23.552 126.72 25.024 126.72 27.776L126.72 46.336C126.72 49.088 128.192 50.56 130.944 50.56L145.024 50.56C145.856 50.56 146.304 51.008 146.304 51.84L146.304 56.576C146.304 57.408 145.856 57.856 145.024 57.856L131.456 57.856C130.816 57.856 130.432 57.728 129.92 57.216ZM146.304 30.976L146.304 43.072C146.304 43.904 145.856 44.352 145.024 44.352L140.288 44.352C139.456 44.352 139.008 43.904 139.008 43.072L139.008 30.976C139.008 30.144 139.456 29.696 140.288 29.696L145.024 29.696C145.856 29.696 146.304 30.144 146.304 30.976ZM185.088 34.56L172.224 34.56C169.472 34.56 168 36.096 168 38.784L168 46.272C168.064 48.768 169.664 50.56 172.16 50.56L198.784 50.56C200.512 50.56 200.96 49.408 199.744 48.192L198.912 47.36C198.464 46.912 198.272 46.464 198.272 45.824L198.272 27.776C198.272 25.024 196.736 23.552 194.048 23.552L172.224 23.552C169.472 23.552 168 25.024 168 27.776L168 30.208C168 31.424 168.704 32.128 169.92 32.128L178.112 32.128C179.328 32.128 180.032 31.424 180.032 30.208C180.032 29.888 180.48 29.696 181.312 29.696L185.088 29.696C185.92 29.696 186.368 30.144 186.368 30.976L186.368 33.28C186.368 34.112 185.92 34.56 185.088 34.56ZM186.368 41.984L186.368 43.136C186.368 43.968 185.92 44.416 185.088 44.416L181.312 44.416C180.48 44.416 180.032 43.968 180.032 43.136L180.032 41.984C180.032 41.152 180.48 40.704 181.312 40.704L185.088 40.704C185.92 40.704 186.368 41.152 186.368 41.984ZM234.688 23.552L207.424 23.552C205.888 23.552 205.312 24.576 206.144 25.856L206.656 26.688C206.976 27.264 207.104 27.648 207.104 28.224L207.104 48.64C207.104 49.856 207.808 50.56 209.024 50.56L217.472 50.56C218.688 50.56 219.392 49.856 219.392 48.64L219.392 30.976C219.392 30.144 219.84 29.696 220.672 29.696L225.472 29.696C226.304 29.696 226.752 30.144 226.752 30.976L226.752 48.64C226.752 49.856 227.456 50.56 228.672 50.56L236.992 50.56C238.208 50.56 238.912 49.856 238.912 48.64L238.912 27.776C238.912 25.024 237.376 23.552 234.688 23.552Z" />
      </g>
    </g>
  </g>
</svg>